/* XPM */
static char *b80b10b0e7ad4489fb690d03c167f821eVNA3GJJHIy0epoF[] = {
/* columns rows colors chars-per-pixel */
"32 32 22 1 ",
"  c #446300",
". c #4F422F",
"X c #016571",
"o c #767678",
"O c #8C3232",
"+ c #D14545",
"@ c #FF5354",
"# c #65A103",
"$ c #C38100",
"% c #81D116",
"& c #FFD500",
"* c #FFEE00",
"= c #D1B07D",
"- c #E3A164",
"; c #EFAB6C",
": c #F7B170",
"> c #0A9EB0",
", c #30C4D6",
"< c #DCC6A4",
"1 c #D9D9DD",
"2 c #E7DDCE",
"3 c white",
/* pixels */
";:;;;;;;-;;;;-;;;;;-;;;;;;;;;;;;",
";;;-;;;;;;;;;;;-;;;;;;;;:;;;;;;;",
";;;;;;;;;;;;;;;;;;;;;;;;;;;;;;;;",
"-;;;;;;;:;;;.;;;;;;:.;;-X;;-;;;;",
";;;:;;;;;;;.<.;;-;;.<.;X>X;;;;;;",
";;;;;;;;;;.=2=.-;;.=2=.X>X;;;;;;",
";;;;;;;;-;.<22.XXX.22<.X>X;;;;;;",
";;;-;;;;;.=222=...=222=.>X;;;;;;",
";;;;;;;;;.<222<<<<<222<.>X;-;;;;",
";;;;;-;;X=<22222222222<=XX;;;;;;",
";;;;;;;;X>2222222222222>XX;;-;;;",
";;;;;;:;X>>22222222222>>XX;;;;-;",
";;;;;;;..>>>>,,,,,,,>>>>..;;;;;;",
";;;;;;:;.<>>>,,,,,,,>>><.;;;;;;;",
";;;;;;;..=<<222222222<<=..;;;;;;",
";;;-;;;;;.=<<<<<<<<<<<=.;;;;;;;-",
";;;;;-;;;;..==<<<<<==..;;;;;;;;;",
";;;;;;;;-;;O.........O;;;;;;;;;;",
";-;;;;;;;$O@3+@@@@@+3+O$;;;;:;;;",
";;;;;;;; o33@1333331++1o ;;;;;;;",
";;;;;;; .221O+@@@@@+O1=.# ;;;;;;",
";:;;;;; .22o%$$   $$%o.*& ;;;;;;",
";;;;-;;$&..%%**%%%**%%%&&$;;;;;;",
";;;;;;;;$&##***%%%***##&$;-;;;;;",
";-;;;;:;;$ #&&&###&&&# $;;;;;;;-",
";;;;;;;....  $$   $$  ;;;;;;;;;;",
";;;;;;.=<2222<..;.<<.;:;;;;:;;;;",
":;;;;;;.......;;;;..;;;;;;;;;;;;",
";;;;;;;;;-;;;;;-;;;;;;;;;;;;;;;;",
";;;;-;;;;;;;;-;;;;;;;;;;;;;;;;;;",
";;;;;;;;;;;;;;;;;;;;-;;;;;;;;;;;",
";:;;;;;;;:;;;;;;-;;;;;;;;;;;;;;;"
};
