/* XPM */
static char *result[] = {
/* columns rows colors chars-per-pixel */
"32 32 9 1 ",
"  c #1B141E",
". c #974E49",
"X c #D08058",
"o c #E3A164",
"O c #EFAB6C",
"+ c #F7B170",
"@ c #EA6D9D",
"# c #FFB2B2",
"$ c #FDF5F1",
/* pixels */
"O+OOOOOOoOOOOoOOOOOoOOOOOOOOOOOO",
"OOOoOOOOOOOOOOOoOOOOOOOO+OOOOOOO",
"OOOOOOOOOOOOOOOOOOOOOOOOOOOOOOOO",
"oOOOOOOO+OOOoOOOOOO+OOOoOOOoOOOO",
"OOO+OOOOOOOOOOOOoOOOOOOOOOOOOOOO",
"OOOOOOOOOOO+OOOoOOOOoOOOOOOOOOOO",
"OOOOOOOOoOOOOOOOOOOOOOOOOOOOOOOO",
"OOOoOOOOOOOOoOOOOOOOOOOOO+OOOOOO",
"OOOOOOOOOOOOOOOOOOOOOOOOOOOoOOOO",
"OOOOOoOOOOOOOO    OOOOOOOOOOOOOO",
"OOOOOOOOOOOOO @##@ OOOOOOOOOoOOO",
"OOOOOO+OOOOO @###$@ OOOOoOOOOOoO",
"OOOOOOOOOOOO ###### OOOOOOOOOOOO",
"OOOOOO+OOOO @######@ OOOOOOOOOOO",
"OOOOOOOOOOO @@##@##@ OOOOOOOOOOO",
"OOOoOOOOOOOO ...... O+OOOOOOOOOo",
"OOOOOoOOOOOo XX.XX. OOOOOOOOOOOO",
"OOOOOOOOoOOOO .XX. oOOOOOOOOOOOO",
"OoOOOOOOOOOOO XX.X OOOOOOOOO+OOO",
"OOOOOOOOOOOOOO .X OOOOOOOOOOOOOO",
"OOOOOOOOOOOOOO XX OOOOOOOOOOOOOO",
"O+OOOOOOOOOOO+O  OOOOOOOOOOOOOOO",
"OOOOoOOOOOOOOOOOOOOOOOOOoOOOOOOO",
"OOOOOOOOOOOOOOOOOO+OOoOOOOoOOOOO",
"OoOOOO+OOOOOOOOOoOOoOOOOOOOOOOOo",
"OOOOOOOOOOOOOOOOOOOOOOOOOOOOOOOO",
"OOOOOOOOOOOOOOOOOOOOOO+OOOO+OOOO",
"+OOOOOOOOOOOOOOOOOOOOOOOOOOOOOOO",
"OOOOOOOOOoOOOOOoOOOOOOOOOOOOOOOO",
"OOOOoOOOOOOOOoOOOOOOOOOOOOOOOOOO",
"OOOOOOOOOOOOOOOOOOOOoOOOOOOOOOOO",
"O+OOOOOOO+OOOOOOoOOOOOOOOOOOOOOO"
};
