/* XPM */
static char *result[] = {
/* columns rows colors chars-per-pixel */
"32 32 32 1 ",
"  c #446300",
". c #4F422F",
"X c #016571",
"o c #767678",
"O c #8C3232",
"+ c #D14545",
"@ c #FF5354",
"# c #65A103",
"$ c #C38100",
"% c #81D116",
"& c #FFD500",
"* c #FFEE00",
"= c #D1B07D",
"- c #E3A164",
"; c #EFAB6C",
": c #F7B170",
"> c #0A9EB0",
", c #789297",
"< c #30C4D6",
"1 c #D3C980",
"2 c #D0DA80",
"3 c #EFE480",
"4 c #DCC6A4",
"5 c #EB94EB",
"6 c #B6D9E2",
"7 c #D9D9DD",
"8 c #E7DDCE",
"9 c #C4DFE7",
"0 c #D3D2E0",
"q c #E3E9E7",
"w c #EFFAFF",
"e c white",
/* pixels */
";:;;;;;;-;;;;-;;;;;-;;;;;;;;;;;;",
";;;-;;;;;;;;;;;-;;;;;;;;:;;;;;;;",
";;;;;;;;;;;;;;;;;;;;;;;;;;;;;;;;",
"-;;;;;;X:;;.-;;;;;;.;;;-;;;-;;;;",
";;;:;;X>X;.4.;;;-;.4.;;;;;;;;;;;",
";;;;;;X<X.=8=.;-;.=8=.;;;;;;;;;;",
";;;;;;X<X.458.;;;.854.;;;;;;;;;;",
";;;-;;X<X=XX>>>>>>>XX=.;;:;;;;;;",
";;;;;;X<XX><<<<<<<<<>X.;;;;-;;;;",
";;;;;-X<X><666666666<>X.;;;;;;;;",
";;;;;;X<X<6,,99999,,6<X.;;;;-;;;",
";;;;;;X<X<9,wqqqqqw,9<X.-;;;;;-;",
";;;;;;X<X<911qqqqq119<X..;;;;;;;",
";;;;;;X<X><23qqqqq32<>X.;;;;;;;;",
";;;;;;X><X><<<<<<<<<>X=..;;;;;;;",
";;;-;;;X><XXXXXXXXXXX=.;;;;;;;;-",
";;;;;-;;XX>>>X><>X0=..;;;;;;;;;;",
";;;;;;;;-;O.........O;;;;;;;;;;;",
";-;;;;;;$O@e+@@@@@+e@O$;;;;;:;;;",
";;;;;;; oe@+7eeeee7+@eo ;;;;;;;;",
";;;;;; .=7eO+@@@@@+Oe7=. ;;;;;;;",
";:;;;; .==o%$$   $$%o==. ;;;;;;;",
";;;;-;$&..%%**%%%**%%..&$;;;;;;;",
";;;;;;;$&##***%%%***##&$.;-;;;;;",
";-;;;;:;$ #&&&###&&&# $.;;;;;;;-",
";;;;;;;;;;  $$   $$  ..;;;;;;;;;",
";;;;;;;;;;;.==.;.==.;;:;;;;:;;;;",
":;;;;;;;;;;;..;;;..;;;;;;;;;;;;;",
";;;;;;;;;-;;;;;-;;;;;;;;;;;;;;;;",
";;;;-;;;;;;;;-;;;;;;;;;;;;;;;;;;",
";;;;;;;;;;;;;;;;;;;;-;;;;;;;;;;;",
";:;;;;;;;:;;;;;;-;;;;;;;;;;;;;;;"
};
