/* XPM */
static char *_066c5e6e44c46a7ef491dc3be64f140MY0kRZk6BSzX67Hi[] = {
/* columns rows colors chars-per-pixel */
"32 32 17 1 ",
"  c #1B141E",
". c #691B28",
"X c #A82424",
"o c #E25322",
"O c #9CAA74",
"+ c #E3A164",
"@ c #E4A265",
"# c #EEAA6B",
"$ c #EEAB6C",
"% c #EFAB6C",
"& c #F0AB6C",
"* c #F0AC6C",
"= c #F6B06F",
"- c #F6B070",
"; c #DFDD9A",
": c #B8D8D1",
"> c #FDF5F1",
/* pixels */
"%-*%%%%%+%%%%+%%%%%+%%%%%%%%%%%%",
"%&*@#%%%%%%%%%%@%%%#%%%%-%%%%%%%",
"%%%#%%%%%%&&%%%%%%%%%%%%&%%%%%%%",
"@#%%%%%%-&&&@%%%%%%-%%%+%%%@%%%%",
"#%%=&%%%&%%&%%%%+%%%%%%#%%%%%%%%",
"%%%&%%%%%%%*%%%+%%%%+%%%%%%%%%%%",
"%%%%%%%%@%%%%%%#%%%%%%%%%%%%%%%%",
"%%*@#%%%#%%%@%%%%%%%%%%%%-%%%%%%",
"%%%%%%%%%%%%%%%%%%%%%%%%%%%+%%%%",
"%%%%%@#%%%%%%%%%%+%%%%%%%%%%%%%%",
"%%%%%%%%%%%%%%%%%%%%%%%%%%%%@%%%",
"%%%%%%-&%%%%%%-%%%%-%%%%@%%%%%@%",
"%%%%%%%%%%%%%%%%%%%%%%%%%%%%%%%%",
"%%%%%%-&%%%-%%%%%%%%%%%%%%%%%%%%",
"%%%%%%%%%%%%%%%%%%%%%%%%%%%%%%%%",
"%%%@#%%%%%%%%%%@%%%%%-%%%%%%%%%+",
"%%%%%+%%%%%+%%%%%%%%%%%%%%%%%%%%",
"%%%%%%%%+%   %%%-%   %%%%%%%%%%%",
"%@%%%%%%% ;>; %%% ;>; %%%%%%-%%%",
"%%%%   % O ;;O % O;;;O %   %%%%%",
"%%% XXo  O;;;O % O;; O  oXX %%%%",
"%- X.XXo  OOO %%% OOO  oXX.X %%%",
"%% XX.XX % . %%%%% . % XX.XX %%%",
"%% XXXXX % X. %%% .X + XXXXX %%%",
"%@% .XXX %% X.   .X %% XXX. %%%+",
"%%%%    X  o.>>>>>.o  X    %%%%%",
"%*%%%%%% X.X.:::::.X.X %%%%-%%%%",
"-*%%%%%%%  XX:>>>:XX  %%%%%%%%%%",
"%%%%%%%    XXXoooXXX    %%%%%%%%",
"%%%%+%% oXX.XXXXXXX.XXo %%%%%%%%",
"%%%%%%%%               %%%%%%%%%",
"%-%%%%%%%-%%%%%%@%%%%%%%%%%%%%%%"
};
