/* XPM */
static char *b0e597266cc64d8b87b74571f5225196nws6QAG0rM8HKBiS[] = {
/* columns rows colors chars-per-pixel */
"32 32 17 1 ",
"  c #1B141E",
". c #691B28",
"X c #A82424",
"o c #E25322",
"O c #9CAA74",
"+ c #E3A164",
"@ c #E4A265",
"# c #EEAA6B",
"$ c #EEAB6C",
"% c #EFAB6C",
"& c #F0AB6C",
"* c #F0AC6C",
"= c #F6B06F",
"- c #F6B070",
"; c #DFDD9A",
": c #B8D8D1",
"> c #FDF5F1",
/* pixels */
"%-*%%%%%+%%%%+%%%%%+%%%%%%%%%%%%",
"%&*@#%%%%%%%%%%@%%%#%%%%-%%%%%%%",
"%%%#%%%%%%&&%%%%%%%%%%%%&%%%%%%%",
"@#%%%%%%-&&&@%%%%%%-%%%+%%%@%%%%",
"#%%=&%%%&%%&%%%%+%%%%%%#%%%%%%%%",
"%%%&%%%%%%%*%%%+%%%%+%%%%%%%%%%%",
"%%%%%%%%@%%%%%%#%%%%%%%%%%%%%%%%",
"%%*@#%%%#%%%@%%%%%%%%%%%%-%%%%%%",
"%%%%%%%%%%%%%%%%%%%%%%%%%%%+%%%%",
"%%%%%@#%%%%%%%%%%+%%%%%%%%%%%%%%",
"%%%%%%%%%%%%%%%%%%%%%%%%%%%%@%%%",
"%%%%%%-&%%%%%%-%%%%-%%%%@%%%%%@%",
"%%%%%%%%%%%%%%%%%%%%%%%%%%%%%%%%",
"%%%%%%-&%%%-%%%%%%%%%%%%%%%%%%%%",
"%%%%%%%%%%%%%%%%%%%%%%%%%%%%%%%%",
"%%%@#%%%%%%   %@%%%%%-%%%%%%%%%+",
"%%%%%+%%%% ;>; %%%%   %%%%%%%%%%",
"%%%%%%%%@ O  ;O -% ;>; %%%%%%%%%",
"%@%%%%%%% ;  ;; % O;;;O %%%%-%%%",
"%%%%%%  % O;;;O % ;;  ; %%%%%%%%",
"%%%%%% o % OOO %% O;  O %%%%%%%%",
"%-*%%% Xo % . %%%% OOO %%%%%%%%%",
"%%%   .XX % X. %%%% . %%   %%%%%",
"%%% ooXXX %% X %%% . +% oXX %%%%",
"%@%% XXXX %% X.   .X % oXX.X %%+",
"%%%%%    X  o.>>>>>.o  XX.XX %%%",
"%*%%%%%%% X.X.:::::.X  XXXXX %%%",
"-*%%%%%%%%  XX:>>>:XX.XXXX. %%%%",
"%%%%%%%%    XXXoooXXX      %%%%%",
"%%%%+%%% oXX.XXXXXXX.X %%%%%%%%%",
"%%%%%%%%%            Xo %%%%%%%%",
"%-%%%%%%%-%%%%%%+%%%%   %%%%%%%%"
};
