/* XPM */
static char *result[] = {
/* columns rows colors chars-per-pixel */
"32 32 133 2 ",
"   c #00001D",
".  c #1A2E8D",
"X  c #192C8F",
"o  c #0000AA",
"O  c #006FAE",
"+  c #0074AE",
"@  c #007FB6",
"#  c #4D75A7",
"$  c #4D76A9",
"%  c #4E76A9",
"&  c #476FB6",
"*  c #001FCD",
"=  c #0020CB",
"-  c #0000F3",
";  c blue",
":  c #0205FF",
">  c #0008FF",
",  c #0009FF",
"<  c #050BFF",
"1  c #0013FF",
"2  c #0C18FE",
"3  c #0C18FF",
"4  c #0020FF",
"5  c #0026FF",
"6  c #0028FF",
"7  c #1424FE",
"8  c #1628FE",
"9  c #2125FF",
"0  c #2237FF",
"q  c #263FFE",
"w  c #283FFE",
"e  c #0045FF",
"r  c #1A4AF6",
"t  c #0058FF",
"y  c #2D47FE",
"u  c #2F4DFC",
"i  c #2058FE",
"p  c #0074E6",
"a  c #006DFF",
"s  c #007FFF",
"d  c #2D68FC",
"f  c #4D78F7",
"g  c #5482BC",
"h  c #5483BD",
"j  c #5583BE",
"k  c #5584BF",
"l  c #0080FF",
"z  c #0081FF",
"x  c #0082FF",
"c  c #0088FF",
"v  c #0089FF",
"b  c #008AFF",
"n  c #008BFF",
"m  c #008FFF",
"M  c #0096FF",
"N  c #0097FF",
"B  c #0992FF",
"V  c #0098FF",
"C  c #0099FF",
"Z  c #009BFF",
"A  c #0899FF",
"S  c #388FFE",
"D  c #00A1FF",
"F  c #00A2FF",
"G  c #00A4FF",
"H  c #00A5FF",
"J  c #00A6FF",
"K  c #00A8FF",
"L  c #00A9FF",
"P  c #00ADFF",
"I  c #00AEFF",
"U  c #16A8FF",
"Y  c #00B1FF",
"T  c #00BBFF",
"R  c #2FA4FF",
"E  c #2FA9FF",
"W  c #32A5FF",
"Q  c #5A8BC9",
"!  c #5B8DCB",
"~  c #5C8ECF",
"^  c #5E8FD6",
"/  c #5B8AD9",
"(  c #5C97D8",
")  c #6193D3",
"_  c #6293D2",
"`  c #6294D2",
"'  c #5E91E8",
"]  c #679FE5",
"[  c #679FEF",
"{  c #6297F2",
"}  c #6298F2",
"|  c #6398F2",
" . c #659BF0",
".. c #659BF1",
"X. c #679FF2",
"o. c #6098F4",
"O. c #629AF6",
"+. c #4BA6FF",
"@. c #51A1FE",
"#. c #5DA0FF",
"$. c #69A2ED",
"%. c #6BA5EE",
"&. c #6BA4EF",
"*. c #6CA6EF",
"=. c #61A0F2",
"-. c #65A4F1",
";. c #66A6F1",
":. c #6BA6F2",
">. c #00C2FF",
",. c #00C8FF",
"<. c #00DFFF",
"1. c #1FD6FF",
"2. c #2AC6FF",
"3. c #2FCAFF",
"4. c #33C9FF",
"5. c #2BD1FF",
"6. c #00E0FF",
"7. c #00E1FF",
"8. c #00E2FF",
"9. c #00EEFF",
"0. c #00EFFF",
"q. c #00F1FF",
"w. c #00F2FF",
"e. c #00F4FF",
"r. c #00FAFF",
"t. c cyan",
"y. c #46C2FF",
"u. c #9DACBE",
"i. c #9DACBF",
"p. c #A9B9CE",
"a. c #B0CBF4",
"s. c #BBCDF1",
"d. c #C5D8EF",
/* pixels */
"*.*.*.*.*.*.*.*.` d.d.` ` *.*.*.*.*.*.` ` d.d.` *.*.*.*.*.*.*.*.",
"*.*.*.*.*.*.*.` d.` ` *.*.*.*.*.*.*.` d.d.` ` *.*.*.*.*.*.*.*.` ",
"*.*.*.*.*.*.` d.` *.*.*.*.*.*.*.*.` d.` ` *.*.*.*.*.*.*.*.*.` d.",
"*.*.*.*.*.*.` d.` *.*.*.*.*.*.*.` d.` *.*.*.*.*.*.*.*.*.*.*.` d.",
"*.*.*.*.*.` d.` *.*.*.*.*.*.*.*.` d.` *.*.*.*.*.*.*.*.*.*.` d.` ",
"*.*.*.*.*.` d.` *.*.*.*.*.*.*.` d.` *.*.*.*.*.*.*.*.*.*.*.` d.` ",
"*.*.*.` ` d.` *.*.*.*.*.*.*.*.` d.` *.*.*.*.*.*.*.*.*.` ` d.` *.",
"*.` ` d.d.` *.*.*.*.*.*.*.` ` d.` *.*.*.*.*.*.*.*.` ` d.d.` *.*.",
"` o p.` ` *.*.*.*.*.*.` ` d.d.` *.*.*.*.*.*.*.*.` d.d.` ` *.*.*.",
"d.; - k j O.j %.*.*.` a.i.p $ j j j j j j j j # u.% ` *.*.*.*.*.",
"/ 6 C t c 9.0.@ + + Z >.t.y.0.0.0.0.0.9.L L 3.5.1.t.O * = ] *.*.",
"; N i u G G G K U 2.q.6.H Y ,.G G G G G G G G G G G H 8.w.w.' *.",
"e #.f *.d H G G G H J T 7.D G G G G G G G G G G G G G z x s l & ",
"0 f *.*.{ B H G G G G G G G G G G G G G G G n F G G > W R R +.r ",
"f *.*.*.*.=.A F G G G G G G G G G G G G G G   C M ; F G G G y _ ",
"*.*.*.*.*.*.^ @.E E J I I I K G G G G F G G G F V F G P J q ) d.",
"*.*.*.*.*.*.` s.( ;.-.7 8 S <.r.r.r.r.,.G b e.r.r.r.r.4.w &.` d.",
"*.*.*.*.*.` d.` *.*.*.*.*.*.X.< 9 2 ; 1 G v 3 ; : o.:.:.*.` d.` ",
"*.*.*.*.*.` d.` *.*.*.*.*.*.` d.` ! ; H G v | a . *.*.*.*.` d.` ",
"*.*.*.` ` d.` *.*.*.*.*.*.` d.` *.h 4 G G ; } m X *.*.` ` d.` *.",
"*.` ` d.d.` *.*.*.*.*.*.*.` d.` *.h 4 H ; ~ .., [ ` ` d.d.` *.*.",
"` d.d.` ` *.*.*.*.*.*.*.` d.` *.*.h 5 ; ! *. .$.` d.d.` ` *.*.*.",
"d.` ` *.*.*.*.*.*.*.*.*.` d.` *.*.g ; Q *.*.*.*.d.` ` *.*.*.*.*.",
"*.*.*.*.*.*.*.*.*.` d.d.` *.*.*.*.*.*.*.` ` d.d.*.*.*.*.*.*.*.*.",
"*.*.*.*.*.*.*.*.` d.` ` *.*.*.*.*.*.*.` d.d.` ` *.*.*.*.*.*.*.*.",
"*.*.*.*.*.*.*.` d.` *.*.*.*.*.*.*.*.` d.` ` *.*.*.*.*.*.*.*.*.` ",
"*.*.*.*.*.*.*.` d.` *.*.*.*.*.*.*.` d.` *.*.*.*.*.*.*.*.*.*.*.` ",
"*.*.*.*.*.*.` d.` *.*.*.*.*.*.*.*.` d.` *.*.*.*.*.*.*.*.*.*.` d.",
"*.*.*.*.*.*.` d.` *.*.*.*.*.*.*.` d.` *.*.*.*.*.*.*.*.*.*.*.` d.",
"*.*.*.*.` ` d.` *.*.*.*.*.*.*.*.` d.` *.*.*.*.*.*.*.*.*.` ` d.` ",
"*.*.` ` d.d.` *.*.*.*.*.*.*.` ` d.` *.*.*.*.*.*.*.*.` ` d.d.` *.",
"*.` d.d.` ` *.*.*.*.*.*.` ` d.d.` *.*.*.*.*.*.*.*.` d.d.` ` *.*."
};
