/* XPM */
static char *_622ee4035264414f35597fd6373537693LfB0RPHnhfg4sc[] = {
/* columns rows colors chars-per-pixel */
"32 32 44 1 ",
"  c #446300",
". c #4F422F",
"X c #016571",
"o c #767678",
"O c #8C3232",
"+ c #D14545",
"@ c #FF5354",
"# c #65A103",
"$ c #C38100",
"% c #81D116",
"& c #FFD500",
"* c #FFEE00",
"= c #D1B07D",
"- c #E3A164",
"; c #EFAB6C",
": c #F7B170",
"> c #BA75BA",
", c #0A9EB0",
"< c #6A8C92",
"1 c #789297",
"2 c #449EB4",
"3 c #52A3B8",
"4 c #71ADB8",
"5 c #30C4D6",
"6 c #B4BF80",
"7 c #B9AE9E",
"8 c #D3C980",
"9 c #D0DA80",
"0 c #EFE480",
"q c #DCC6A4",
"w c #EB94EB",
"e c #B1CECD",
"r c #B6D9E2",
"t c #C3C2C1",
"y c #CDC8C8",
"u c #D9D9DD",
"i c #E1D1C6",
"p c #E7D4C8",
"a c #E7DDCE",
"s c #C4DFE7",
"d c #D0F0FF",
"f c #E3E9E7",
"g c #EFFAFF",
"h c white",
/* pixels */
";:;;;;;;-;;;;-;;;;;-;;;;;;;;;;;;",
";;;-;;;;;;;;;;;-;;;;;;;;:;;;;;;;",
";;;;;;;;;;;;;;;;;;;;;;;;;;;;;;;;",
"-;;;;;;;:;;;-X..;;;.;;;-;;;-;;;;",
";;;:;;;;;;;;X,Xq.;.=.;;;;;;;;;;;",
";;;;;;;;;;;:X5Xa..==.;;;;;;;;;;;",
";;;;;;;;-;;.X5Xw.==>.;;;;;;;;;;;",
";;;-;;;;;;..X5XXX,,,,XXX;:;;;;;;",
";;;;;;;;;.=qX5X,55555555X;;-;;;;",
";;;;;-;;.qaaX5X55rrrre<2t;;;;;;;",
";;;;;;;X,,,,X5X5<1ssss13y;;;-;;;",
";;;;;;:X,,,,X5X51dffffg4i;;;;;-;",
";;;;;;;.qa.7X5X568ffff84p;;;;;;;",
";;;;;;:.qaaaX5X559ffff04p;;;;;;;",
";;;;;;;.=a.7X,5X55555555X;;;;;;;",
";;;-;;;;.qaaaX,5XXXXXXXX;;;;;;;-",
";;;;;-;;;..=qqX,,X,5,X;;;;;;;;;;",
";;;;;;;;-; ......... ;;;;;;;;;;;",
";-;;;;;;$$#O@++@@@+O#$$;;;;;:;;;",
";;;;;;; ##Ouhuhhhhuo ## ;;;;;;;;",
";;;;;; #**O@@O+@@@+O **# ;;;;;;;",
";:;;;; &**ouho   $$%%**& ;;;;;;;",
";;;;-;$&&%.qq.%%%**%%%&&$;;;;;;;",
";;;;;;.$&##..*%%%***##&$;;-;;;;;",
";-;;;;:.$ #&&&###&&&# $;;;;;;;;-",
";;;;;;;;..  $$   $$  ;;;;;;;;;;;",
";;;;;;;;;;;;.===..;;;;:;;;;:;;;;",
":;;;;;;;;;;;;...;;;;;;;;;;;;;;;;",
";;;;;;;;;-;;;;;-;;;;;;;;;;;;;;;;",
";;;;-;;;;;;;;-;;;;;;;;;;;;;;;;;;",
";;;;;;;;;;;;;;;;;;;;-;;;;;;;;;;;",
";:;;;;;;;:;;;;;;-;;;;;;;;;;;;;;;"
};
