/* XPM */
static char *_8d026f94d51406cd6e841393173d5900W8b1AJGXQbgUnqP[] = {
/* columns rows colors chars-per-pixel */
"32 32 3 1 ",
"  c #7A70C2",
". c #708EE9",
"X c #C4D8EE",
/* pixels */
"........ XX  ......  XX ........",
"....... X  ....... XX  ........ ",
"...... X ........ X  ......... X",
"...... X ....... X ........... X",
"..... X ........ X .......... X ",
"..... X ....... X ........... X ",
"...  X ........ X .........  X .",
".  XX .......  X ........  XX ..",
" XX  ......  XX ........ XX  ...",
"X  ....... XX  ........ X  .....",
" ........ X  ........  X .......",
"......... X .......  XX ........",
"........ X ....... XX  .........",
"........ X ...... X  ...........",
"....... X ...... X ............ ",
"...... X ....... X ........... X",
"...... X ...... X ............ X",
"..... X ....... X ........... X ",
"..... X ...... X ............ X ",
"...  X ...... X ...........  X .",
".  XX ....... X .........  XX ..",
" XX  ....... X ......... XX  ...",
"X  ......... X .........X  .....",
"......... XX .......  XX........",
"........ X  ....... XX  ........",
"....... X ........ X  ......... ",
"....... X ....... X ........... ",
"...... X ........ X .......... X",
"...... X ....... X ........... X",
"....  X ........ X .........  X ",
"..  XX .......  X ........  XX .",
". XX  ......  XX ........ XX  .."
};
